<?xml version="1.0" standalone="no"?>
<!DOCTYPE svg PUBLIC "-//W3C//DTD SVG 1.1//EN" "http://www.w3.org/Graphics/SVG/1.1/DTD/svg11.dtd" >
<svg xmlns="http://www.w3.org/2000/svg">
<metadata>Generated by IcoMoon</metadata>
<defs>
<font id="icomoon" horiz-adv-x="1024">
<font-face units-per-em="1024" ascent="1024" descent="0" />
<missing-glyph horiz-adv-x="1024" />
<glyph unicode="&#x20;" horiz-adv-x="0" d="" />
<glyph unicode="&#xe900;" glyph-name="added" d="M267.087 665.459h1.271c28.248 0.565 46.468 20.692 47.245 51.341 0.494 19.562 0 39.406 0 58.615 0 8.545-0.706 17.020-0.706 25.494v12.359h0.989s0 9.534 0 15.395c0 19.209 0 36.017 0 55.578-1.059 31.779-20.833 51.059-48.446 51.059v0c-27.542 0-46.257-19.138-46.61-50.141-0.565-56.497-0.424-112.993 0.353-170.055 0.212-31.709 17.443-49.646 45.903-49.646zM586.152 663.834v0c28.672 0 47.033 20.198 47.81 51.271 0.494 19.562 0.353 43.573 0 62.782 0 5.791 0 14.76 0 21.539h-1.059v0.565c0 8.757 0.636 17.514 0.706 26.271 0 19.915 0.494 40.536 0 60.804-0.212 29.308-20.268 51.624-46.539 52.189h-0.918c-26.553 0-46.045-21.681-46.327-51.482-0.636-57.98-0.706-116.312 0-171.679 0.071-31.638 18.079-52.259 46.327-52.259zM341.663 833.607h169.56v-61.016h-169.56v61.016zM234.743 267.511h1.342c33.689 1.484 60.439 29.157 60.439 63.077 0 34.417-27.54 62.402-61.785 63.121l-0.067 0.001h-1.624c-17.843-0.511-33.799-8.186-45.168-20.236l-0.030-0.032c-10.717-11.005-17.326-26.056-17.326-42.65 0-0.598 0.009-1.194 0.026-1.787l-0.002 0.087c1.097-34.243 29.12-61.585 63.528-61.585 0.234 0 0.468 0.001 0.702 0.004h-0.036zM233.684 460.588h0.847c0.175-0.002 0.382-0.003 0.59-0.003 17.177 0 32.763 6.814 44.201 17.886l-0.017-0.017c11.473 11.227 18.616 26.839 18.714 44.119v0.018c0.010 0.42 0.015 0.915 0.015 1.411 0 17.397-6.721 33.224-17.707 45.027l0.037-0.040c-11.181 12.12-26.946 19.868-44.524 20.477l-0.108 0.003h-0.918c-35.314-0.437-63.773-29.167-63.773-64.543 0-17.159 6.695-32.754 17.616-44.315l-0.029 0.031c11.335-12.059 27.27-19.683 44.988-20.055l0.068-0.001zM439.473 461.647c32.45 3.14 57.612 30.271 57.612 63.28 0 32.509-24.407 59.318-55.897 63.102l-0.303 0.030c-0.472 0.013-1.027 0.020-1.584 0.020-34.414 0-62.44-27.351-63.526-61.501l-0.003-0.1c-0.022-0.62-0.035-1.348-0.035-2.079 0-16.745 6.607-31.946 17.357-43.139l-0.020 0.021c11.328-11.838 27.148-19.297 44.712-19.632l0.062-0.001zM438.837 263.98h0.494c35.172 0.319 63.561 28.905 63.561 64.121 0 0.175-0.001 0.349-0.002 0.524v-0.027c0.013 0.484 0.021 1.053 0.021 1.624 0 34.595-28.045 62.641-62.641 62.641-0.032 0-0.064 0-0.097 0h-0.631c-0.653 0.025-1.42 0.039-2.189 0.039-33.833 0-61.271-27.378-61.369-61.187v-0.009c-0.017-0.568-0.027-1.236-0.027-1.906 0-17.236 6.555-32.94 17.307-44.757l-0.048 0.054c11.409-12.45 27.52-20.431 45.501-21.112l0.12-0.004zM817.717 647.097c-0.147 0-0.321 0.001-0.494 0.001-113.381 0-205.294-91.913-205.294-205.294s91.913-205.294 205.294-205.294c113.306 0 205.173 91.792 205.294 205.070v0.012c0.001 0.21 0.001 0.458 0.001 0.706 0 113.108-91.692 204.8-204.8 204.8 0 0-0.001 0-0.001 0v0zM944.834 440.673c0-14.83-17.796-20.762-32.627-20.762h-69.138v-71.892c0-14.83-10.028-23.022-24.858-23.022h-0.989c-14.83 0-35.31 8.192-35.31 23.022v71.892h-57.697c-14.83 0-23.658 5.932-23.658 20.762v1.342c-0.076 0.702-0.119 1.516-0.119 2.341 0 12.754 10.339 23.093 23.093 23.093 0.24 0 0.48-0.004 0.719-0.011l-0.035 0.001h57.697v68.29c0 14.83 20.339 26.553 35.31 26.553h0.989c13.767-0.053 24.907-11.225 24.907-25 0-0.547-0.018-1.089-0.052-1.627l0.004 0.073v-68.361h69.138c14.83 0 32.627-10.593 32.627-25.423zM669.272 774.073c1.734-1.251 3.869-2.051 6.182-2.188l0.032-0.002 22.81-0.494c12.147 0 24.717-0.494 37.005-0.918 35.31-1.271 44.35-10.522 44.703-44.985 0-13.489 0-28.248 0-43.644 10.842 1.71 23.345 2.687 36.077 2.687 0.475 0 0.951-0.001 1.425-0.004h-0.073c13.393-0.069 26.468-1.196 39.213-3.303l-1.431 0.195c0 16.525 0 33.262 0 49.858-0.706 55.225-36.017 97.174-88.205 104.377-10.361 1.447-22.331 2.273-34.494 2.273-0.908 0-1.814-0.005-2.72-0.014l0.138 0.001c-9.958 0-20.056-1.836-29.873-2.189s-20.268-2.189-30.438-2.189h-16.031v-55.225l8.192-2.33c1.624-0.777 6.709-1.412 7.486-1.907zM780.359 201.975c-0.565-18.008-3.39-29.661-9.322-35.31s-19.633-11.299-42.937-11.299h-0.706c-24.294 0-48.587 1.271-72.951 1.201-13.771 0-27.471 0.565-41.242 0.565-47.881 0-53.389 0-101.27 0q-195.549 0-391.097 0c-36.299 0-46.257 9.887-46.257 45.621 0 170.408 0 346.606 0 519.91 0 38.7 8.051 46.61 47.457 47.033h23.446c6.426 0 12.853 1.13 19.421 1.13s13.489 1.13 20.339 1.13h6.709v68.431h-6.709c-8.545 0-16.737-0.777-24.647-0.777s-14.83 0-21.963 0c-9.958 0-18.15 0-25.847-0.494-70.409-1.907-112.781-45.409-112.781-116.524q0-117.301 0-234.743c0-92.513 0-188.134 0-282.483 0-72.245 43.361-116.454 116.242-116.948 30.508 0 60.522-1.059 85.804-1.059h31.002l33.615 0.777c42.372 0 84.745 0.353 127.612 0.353h127.682c102.894 0 139.123 0 212.568 0.353 74.646 0 117.16 40.183 120.055 112.64-11.143-1.799-23.988-2.826-37.073-2.826-0.299 0-0.598 0.001-0.896 0.002h0.046c-13 0.234-25.536 1.432-37.766 3.527l1.467-0.208z" />
<glyph unicode="&#xe901;" glyph-name="arrow" d="M569.251 245.295l428.218 428.218c11.925 14.223 19.168 32.722 19.168 52.913 0 45.629-36.989 82.618-82.618 82.618-20.191 0-38.69-7.243-53.042-19.273l0.128 0.105-370.269-369.338-369.804 370.735c-15.26 18.209-38.013 29.705-63.45 29.705-45.629 0-82.618-36.989-82.618-82.618 0-25.438 11.496-48.19 29.577-63.346l0.128-0.105 428.218-428.218c14.996-15.231 35.839-24.668 58.886-24.668 22.35 0 42.627 8.875 57.499 23.292l-0.021-0.021z" />
<glyph unicode="&#xe902;" glyph-name="btn-add" d="M512 1024c-282.77 0-512-229.23-512-512s229.23-512 512-512c282.77 0 512 229.23 512 512v0c0 282.77-229.23 512-512 512v0zM747.683 507.611c0-20.946-16.98-37.926-37.926-37.926v0h-160.589v-155.442c0-20.946-16.98-37.926-37.926-37.926v0h-3.684c-20.946 0-37.926 16.98-37.926 37.926v0 155.442h-155.388c-20.946 0-37.926 16.98-37.926 37.926v0 3.63c0 20.946 16.98 37.926 37.926 37.926v0h155.442v160.589c0 20.946 16.98 37.926 37.926 37.926v0h3.684c20.946 0 37.926-16.98 37.926-37.926v0-160.589h160.535c20.946 0 37.926-16.98 37.926-37.926v0z" />
<glyph unicode="&#xe903;" glyph-name="btn-dayshow" d="M617.055 133.31h0.041c51.799 0.427 93.696 42.39 94.016 94.246v521.481c0 52.365-42.45 94.815-94.815 94.815h-94.815v23.704c0 13.091-10.613 23.704-23.704 23.704s-23.704-10.613-23.704-23.704v-23.704h-237.037v23.704c0 13.091-10.613 23.704-23.704 23.704s-23.704-10.613-23.704-23.704v-23.704h-94.815c-52.365 0-94.815-42.45-94.815-94.815v-520.913c0-52.365 42.45-94.815 94.815-94.815h522.24zM664.557 701.63h-617.15v47.407c0 26.182 21.225 47.407 47.407 47.407h94.815v-23.704c0-13.091 10.613-23.704 23.704-23.704s23.704 10.613 23.704 23.704v23.704h237.796v-23.135c0-13.091 10.613-23.704 23.704-23.704s23.704 10.613 23.704 23.704v23.704h94.815c26.182 0 47.407-21.225 47.407-47.407zM569.647 228.124h-47.407c-26.182 0-47.407 21.225-47.407 47.407v0 46.839c0 26.182 21.225 47.407 47.407 47.407v0h47.407c26.182 0 47.407-21.225 47.407-47.407v0-47.407c-0.268-25.978-21.389-46.933-47.405-46.933-0.001 0-0.002 0-0.003 0v0zM569.647 322.939h-47.407v-47.407h47.407zM569.647 417.754h-47.407c-26.182 0-47.407 21.225-47.407 47.407v0 46.839c0 26.182 21.225 47.407 47.407 47.407v0h47.407c26.182 0 47.407-21.225 47.407-47.407v0-47.407c0-26.182-21.225-47.407-47.407-47.407v0zM569.647 512.569h-47.407v-47.407h47.407zM380.018 228.124h-48.166c-26.182 0-47.407 21.225-47.407 47.407v0 46.839c0 26.182 21.225 47.407 47.407 47.407v0h47.407c26.182 0 47.407-21.225 47.407-47.407v0-47.407c-0.265-25.813-21.12-46.668-46.908-46.933h-0.025zM380.018 322.939h-48.166v-47.407h47.407zM380.018 417.754h-48.166c-26.182 0-47.407 21.225-47.407 47.407v0 46.839c0 26.182 21.225 47.407 47.407 47.407v0h47.407c26.182 0 47.407-21.225 47.407-47.407v0-47.407c0-0.001 0-0.002 0-0.002 0-26.016-20.956-47.137-46.908-47.405h-0.025zM380.018 512.569h-48.166v-47.407h47.407zM190.388 228.124h-48.166c-26.182 0-47.407 21.225-47.407 47.407v0 46.839c0 26.182 21.225 47.407 47.407 47.407v0h47.407c26.182 0 47.407-21.225 47.407-47.407v0-47.407c-0.268-25.978-21.389-46.933-47.405-46.933-0.001 0-0.002 0-0.003 0v0zM190.388 322.939h-48.166v-47.407h47.407zM190.388 417.754h-48.166c-26.182 0-47.407 21.225-47.407 47.407v0 46.839c0 26.182 21.225 47.407 47.407 47.407v0h47.407c26.182 0 47.407-21.225 47.407-47.407v0-47.407c0-26.182-21.225-47.407-47.407-47.407v0zM190.388 512.569h-48.166v-47.407h47.407zM1016.13 546.039l-97.754 140.326-103.064-140.326h200.818zM820.717 417.754l97.754-140.326 102.969 140.326h-200.723z" />
<glyph unicode="&#xe904;" glyph-name="btn-msg" d="M881.419 731.937l1.67-27.492c0-26.157 0-23.708 0-47.972 0-254.887-201.683-431.527-481.28-431.527h-96.278c76.355-74.351 165.176-119.875 288.835-119.875 27.188 0.088 53.763 2.432 79.629 6.856l-2.829-0.4 180.313-110.303v181.203c97.503 66.783 160.501 169.85 160.501 286.163-0.557 103.736-50.643 197.12-130.56 263.346zM325.899 297.294c31.692-4.585 69.045-7.633 106.948-8.442l1.018-0.017c230.4 0 385.002 170.741 385.002 371.534s-193.224 363.631-385.002 363.631c-230.734 0-417.169-162.727-417.169-363.52 0-116.424 44.522-215.263 128.334-286.275v-181.203zM610.282 704.334c26.398-0.127 47.748-21.556 47.748-47.972 0-26.494-21.478-47.972-47.972-47.972s-47.972 21.478-47.972 47.972c0 0.117 0 0.234 0.001 0.351v-0.018c0.252 26.364 21.682 47.638 48.081 47.638 0.040 0 0.080 0 0.12 0h-0.006zM417.725 704.334c26.446-0.064 47.86-21.517 47.86-47.972 0-26.494-21.478-47.972-47.972-47.972s-47.972 21.478-47.972 47.972c0 0.117 0 0.235 0.001 0.352v-0.018c0.25 26.248 21.493 47.451 47.732 47.638h0.018zM225.169 704.334c26.494-0.001 47.971-21.478 47.971-47.972s-21.478-47.972-47.972-47.972c-26.494 0-47.972 21.478-47.972 47.972 0 0.117 0 0.235 0.001 0.352v-0.018c0.189 26.35 21.594 47.638 47.971 47.638 0.040 0 0.079 0 0.119 0h-0.006z" />
<glyph unicode="&#xe905;" glyph-name="btn-recode" d="M513.896 684.816c149.175 0 298.351-1.264 447.4 0.759 49.051 0.632 66.244-16.308 62.325-65.738-12.642-157.519-21.997-315.164-31.731-472.81-2.528-41.719-22.25-59.797-64.221-59.67q-415.415 1.011-830.957 0c-39.949 0-59.291 18.963-61.946 56.889-11.504 161.059-22.123 322.244-34.765 483.303-3.54 46.522 19.848 58.027 60.808 57.774 151.324-1.011 302.27-0.506 453.088-0.506zM55.245 731.591c4.298 53.602 8.976 103.032 11.883 152.589 2.402 41.086 19.595 59.417 63.21 57.521 74.84-3.16 149.681 2.149 223.637-2.528 29.686-3.103 55.91-15.926 75.891-35.182l-0.039 0.038c27.28-30.508 66.757-49.62 110.699-49.62 2.639 0 5.263 0.069 7.868 0.205l-0.364-0.015c113.778 2.781 227.556 0.885 341.333 0.885 74.082 0 75.852-1.77 79.392-77.369 0.632-14.159 0-28.318 0-46.522z" />
<glyph unicode="&#xe906;" glyph-name="btn-setting" d="M876.202 765.966c20.858 4.051 38.771 8.983 56.122 15.107l-2.731-0.84c26.082 11.146 47.26 4.57 58.406-18.837 12.876-26.626 24.635-58.119 33.526-90.794l0.916-3.949c6.13-22.292-8.471-36.559-28.646-45.365-33.042-13.381-58.376-39.916-69.852-72.936l-0.258-0.852c-18.614-54.616 4.57-108.007 59.298-137.098 38.12-20.286 45.699-35.445 34.33-76.797-6.111-21.892-14.056-40.952-23.987-58.752l0.691 1.35c-9.589-20.693-30.182-34.788-54.067-34.788-7.401 0-14.486 1.353-21.021 3.826l0.409-0.136c-11.416 3.438-24.664 5.787-38.334 6.556l-0.455 0.020c-82.816 3.79-132.417-59.075-110.459-139.439 14.49-53.167 9.363-65.094-40.126-89.169-11.117-5.585-24.278-10.78-37.933-14.826l-1.748-0.444c-45.142-13.152-53.613-9.251-75.794 31.767s-53.725 69.218-103.214 68.883-81.367-27.643-103.771-68.549-36.448-47.483-79.249-32.324c-32.499 12.316-60.339 26.302-86.479 42.744l1.991-1.169c-11.595 6.459-19.309 18.645-19.309 32.632 0 7.046 1.957 13.635 5.358 19.252l-0.093-0.166c0.892 2.006 1.56 4.124 2.341 6.13 32.658 91.287-20.286 156.938-115.363 142.894-25.19-3.678-56.623-20.955-72.562 6.799-17.388 32.825-31.857 70.91-41.452 110.89l-0.68 3.358c-2.341 8.36 12.372 23.407 22.292 32.547 8.717 6.252 18.707 12.427 29.11 17.925l1.43 0.689c74.122 53.39 71.447 140.553-6.242 188.371-23.184 14.044-51.718 23.407-48.597 58.183 4.124 42.356 17.165 81.367 50.381 110.347 5.67 3.326 12.488 5.289 19.764 5.289 1.637 0 3.251-0.099 4.837-0.293l-0.19 0.019c8.299-1.069 15.825-3.063 22.918-5.906l-0.626 0.222c90.953-24.856 157.496 30.206 150.251 124.503-5.907 76.017 6.019 92.848 80.364 113.58 50.604 14.156 55.731 11.815 82.816-35.222 22.292-37.451 52.944-61.304 97.975-60.97 1.040-0.034 2.263-0.054 3.49-0.054 44.043 0 82.191 25.242 100.765 62.049l0.296 0.646c24.41 44.585 33.439 48.374 80.921 33.439 19.172-6.199 35.812-14.137 51.15-23.933l-0.881 0.526c28.088-17.834 41.352-39.012 28.311-76.686-27.42-77.689 24.299-148.579 103.66-150.251zM510.941 274.419c131.851 0.254 238.639 107.199 238.639 239.085 0 132.043-107.042 239.086-239.086 239.086-131.808 0-238.704-106.661-239.085-238.38v-0.036c-0.004-0.498-0.006-1.087-0.006-1.676 0-131.489 106.593-238.083 238.083-238.083 0.512 0 1.023 0.002 1.534 0.005h-0.079z" />
<glyph unicode="&#xe907;" glyph-name="cancel" d="M542.118 543.322h-306.899v-76.424h306.899zM235.219 313.073h230.325v76.424h-230.325zM121.751 159.172c-24.471 0-40.433 15.059-40.433 39.605v688.715c0 24.395 16.038 38.099 40.508 38.099 112.941 0 226.409-2.259 339.576-2.259h2.033v-227.614h235.671v-141.854c22.568 6.311 48.484 9.939 75.247 9.939 0.149 0 0.298 0 0.447 0h-0.023c0 61.289-0.602 122.579-0.602 183.868 0 0.010 0 0.021 0 0.033 0 2.774-1.22 5.263-3.152 6.961l-0.010 0.009q-123.934 123.784-247.944 247.718c-1.391 1.706-3.493 2.787-5.848 2.787-0.035 0-0.071 0-0.106-0.001h0.005q-198.475 0-396.649 0c-10.28-0.079-20.205-1.447-29.668-3.952l0.831 0.187c-51.44-12.831-89.020-58.438-89.449-112.893v-0.048c-0.075-114.974-2.184-229.647-2.184-344.696v-66.108c0-92.762 2.184-185.449 2.108-278.136 0.261-13.567 2.751-26.471 7.115-38.476l-0.263 0.828c15.825-46.8 59.34-79.891 110.584-79.891 0.326 0 0.651 0.001 0.976 0.004h411.809c-17.734 21.867-31.874 47.508-41.009 75.414l-0.478 1.688zM544.678 871.454c32.527-31.925 63.021-70.099 95.322-94.494h-95.322zM774.776 508.235c-0.134 0-0.293 0-0.452 0-135.896 0-246.061-110.165-246.061-246.061s110.165-246.061 246.061-246.061c135.843 0 245.975 110.079 246.061 245.902v0.008c0 0.112 0 0.244 0 0.377 0 135.692-109.936 245.707-245.597 245.835h-0.012zM878.231 159.925l-1.129-1.129c-5.811-5.714-13.788-9.242-22.588-9.242s-16.777 3.528-22.593 9.246l0.005-0.004-56.847 56.847-55.793-55.793c-5.803-5.732-13.782-9.272-22.588-9.272s-16.785 3.54-22.591 9.275l-0.825 0.825c-5.838 5.867-9.448 13.957-9.448 22.889s3.609 17.023 9.449 22.891l-0.001-0.001 55.718 55.793-55.718 55.718c-5.714 5.811-9.242 13.788-9.242 22.588s3.528 16.777 9.246 22.593l-0.004-0.005 1.129 1.129c5.811 5.714 13.788 9.242 22.588 9.242s16.777-3.528 22.593-9.246l-0.005 0.004 55.718-55.718 56.696 56.696c5.899 5.829 14.011 9.43 22.965 9.43s17.066-3.601 22.968-9.433l0.825-0.825c5.834-5.855 9.441-13.932 9.441-22.852s-3.607-16.997-9.442-22.853l-56.695-56.695 56.847-56.847c5.488-5.756 8.864-13.568 8.864-22.168 0-8.94-3.649-17.028-9.539-22.856l-0.003-0.003z" />
<glyph unicode="&#xe908;" glyph-name="change-1" d="M401.709 110.291c-79.29 0-158.673 0-237.963 0-78.324 0.225-143.718 55.311-159.789 128.841l-0.199 1.084c-2.344 10.543-3.711 22.666-3.758 35.101v0.034q0 237.963 0 476.019c-0.004 0.448-0.007 0.978-0.007 1.508 0 90.071 73.017 163.088 163.088 163.088 0.432 0 0.863-0.002 1.294-0.005h-0.066c159.706 0 319.413 0.564 479.119-0.47 22.358-1.5 43.174-6.196 62.627-13.646l-1.468 0.494c16.346-5.073 17.568-18.789 6.576-32.505-18.789-22.359-38.423-38.517-69.613-27.338h-366.385c-36.263 0-72.432 0-108.694 0-0.794 0.025-1.727 0.039-2.664 0.039-50.12 0-90.751-40.631-90.751-90.751 0-0.873 0.012-1.742 0.037-2.609l-0.003 0.127q0-236.272 0-472.543c-0.027-0.824-0.042-1.794-0.042-2.767 0-50.172 40.673-90.845 90.845-90.845 0.973 0 1.942 0.015 2.908 0.046l-0.141-0.004q236.272 0 472.167 0c0.844-0.028 1.837-0.044 2.833-0.044 50.328 0 91.127 40.799 91.127 91.127 0 0.577-0.005 1.153-0.016 1.727l0.001-0.086c0 22.077-0.564 44.248 0 66.325 0.577 7.7 3.495 14.624 8.036 20.168l-0.051-0.064c9.394 11.273 20.95 21.044 31.284 31.753 3.466 4.549 8.886 7.455 14.985 7.455 2.772 0 5.404-0.6 7.773-1.678l-0.118 0.048c6.629-2.766 11.203-9.195 11.203-16.693 0-0.972-0.077-1.926-0.225-2.857l0.013 0.103c-0.752-43.027 2.067-86.429-2.537-129.080-10.534-79.738-77.967-140.672-159.681-140.917h-241.746zM749.775 804.545l164.028-164.498c-1.315-1.409-3.194-3.664-5.261-5.731q-185.166-185.259-370.519-370.331c-3.38-3.679-7.966-6.201-13.128-6.938l-0.118-0.014c-51.106-0.47-102.212 0-153.224 0-2.026 0.142-3.862 0.376-5.665 0.705l0.31-0.047v45.657c0 36.639 0 73.183 0 109.822 0.183 5.332 2.254 10.147 5.561 13.83l-0.018-0.020q186.763 187.044 373.713 373.619c1.315 1.409 2.818 2.63 4.321 3.946zM486.071 463.994c-17.004-17.192-32.693-35.605-51.106-50.824-16.159-13.434-14.374-28.935-12.87-46.972h54.582v-55.521c12.025 1.409 26.399-1.315 33.538 4.603 22.641 18.789 42.651 41.054 63.037 61.346zM549.014 497.439c5.325 3.761 9.949 7.43 14.361 11.332l-0.176-0.152q67.171 66.983 134.059 134.153c20.198 20.198 40.49 40.302 60.594 60.594 9.394 9.394 7.985 20.762-3.1 23.11-6.862-0.045-13.017-3.039-17.267-7.776l-0.019-0.022q-96.2-94.79-191.742-190.802c-2.976-2.355-5.452-5.19-7.345-8.408l-0.077-0.141c-0.873-1.879-1.382-4.079-1.382-6.398 0-1.779 0.3-3.487 0.851-5.078l-0.033 0.109c2.161-3.946 7.14-6.576 11.179-10.522zM950.911 680.068l-163.276 163.652c20.762 19.728 40.772 41.242 63.413 59.467 7.93 5.594 17.793 8.941 28.439 8.941 13.641 0 25.998-5.496 34.978-14.394l-0.004 0.004c31.566-30.438 62.661-61.346 93.006-93.006 8.697-9.145 14.046-21.543 14.046-35.191 0-13.012-4.863-24.889-12.871-33.911l0.046 0.053c-17.943-19.541-38.236-36.92-57.776-55.615z" />
<glyph unicode="&#xe909;" glyph-name="change-2" horiz-adv-x="1029" d="M1022.037 643.859c-3.122-2.855-4.996-4.282-6.691-5.977-31.582-31.493-63.074-63.074-94.745-94.389-3.809-3.56-6.183-8.614-6.183-14.222 0-0.363 0.010-0.725 0.030-1.083l-0.002 0.050q0-205.193 0-409.671v-10.081h-806.139v804.622h11.865q204.39 0 408.779 0c0.103-0.002 0.225-0.003 0.347-0.003 4.889 0 9.378 1.718 12.894 4.582l-0.037-0.029c32.831 32.117 65.305 64.769 98.136 97.243 1.249 1.249 2.409 2.766 4.371 5.085-3.569 0-5.888 0-8.297 0h-578.643c-0.164 0.002-0.357 0.003-0.55 0.003-27.060 0-49.56-19.526-54.177-45.257l-0.050-0.334c-0.811-2.7-1.812-5.036-3.037-7.229l0.093 0.181v-917.478c3.539-14.458 11.73-26.624 22.866-35.129l0.151-0.111c8.357-4.821 18.392-9.728 28.759-13.993l1.752-0.638h918.906c0.62 0.471 1.324 0.889 2.074 1.222l0.068 0.027c32.742 9.635 47.551 29.262 47.551 63.074q0 284.593 0 569.186zM1005.8 924.705c-28.192 27.746-56.026 55.848-84.040 83.772-8.47 9.489-20.737 15.434-34.392 15.434s-25.922-5.946-34.353-15.389l-0.040-0.045c-17.843-17.843-35.686-35.686-53.528-53.528-1.338-1.249-2.498-2.676-3.301-3.658l160.585-160.585c1.606 1.517 3.301 3.033 4.996 4.639 14.81 14.72 29.351 29.619 44.607 44.072 10.769 8.979 18.865 20.823 23.143 34.363l0.142 0.52v15.88c-4.762 13.914-12.999 25.603-23.691 34.422l-0.129 0.104zM908.378 744.76l-158.98 159.961-365.778-367.295 158.98-159.961zM289.143 284.772l204.3 45.321-158.712 159.693z" />
<glyph unicode="&#xe90a;" glyph-name="chatroom" d="M509.952 1024c224.066-2.124 416.275-148.215 477.26-355.973 77.141-262.827-57.799-523.378-316.151-615.917-46.998-17.407-101.286-27.479-157.926-27.479-30.28 0-59.887 2.878-88.563 8.376l2.929-0.467c-17.379 3.33-37.367 5.235-57.8 5.235-40.12 0-78.524-7.344-113.941-20.762l2.212 0.736c-41.036-15.17-83.437-23.817-126.673-18.887-22.363 3.449-42.472 9.43-61.316 17.751l1.545-0.609c-6.751 2.655-10.543 12.819-15.701 19.646 5.929 4.83 12.539 9.532 19.447 13.797l0.805 0.463c12.060 6.372 26.017 9.709 36.788 17.673 52.717 38.836 43.16 94.891 12.895 137.899-31.63 44.828-62.274 89.809-81.161 141.843-53.096 146.773-43.008 289.375 34.588 424.77 74.411 129.707 187.506 209.351 333.748 239.995 31.934 6.447 64.702 8.040 97.015 11.909zM511.241 739.176c-43.084 0-86.244 0-128.948 0-0.815 0.062-1.766 0.098-2.724 0.098-17.17 0-31.675-11.41-36.347-27.060l-0.069-0.268c-4.93-15.17-0.834-33.451 12.667-41.339 9.785-5.707 21.477-9.212 33.958-9.555l0.099-0.002c80.706-0.759 161.337-0.531 242.043 0 0.337-0.006 0.736-0.009 1.134-0.009 8.852 0 17.327 1.617 25.145 4.571l-0.49-0.162c13.524 5.996 22.787 19.303 22.787 34.773 0 2.592-0.26 5.122-0.755 7.568l0.041-0.243c-3.284 18.183-18.99 31.796-37.876 31.796-0.364 0-0.728-0.005-1.090-0.015l0.053 0.001c-43.463 0.228-86.547-0.152-129.631-0.152zM510.407 549.547c-39.822 0-79.644 0-119.391 0-7.57-0.123-14.847-1.139-21.803-2.948l0.641 0.141c-15.945-3.844-27.781-17.509-28.818-34.102l-0.005-0.107c-0.099-1.030-0.156-2.226-0.156-3.436 0-15.226 8.973-28.357 21.92-34.393l0.233-0.098c8.44-3.078 18.182-4.857 28.341-4.857 0.25 0 0.499 0.001 0.749 0.003h-0.038q118.556-0.607 237.189 0c8.103 0.049 15.939 1.098 23.42 3.028l-0.664-0.145c15.785 4.297 27.339 18.142 28.138 34.805l0.003 0.086c0.037 0.631 0.058 1.369 0.058 2.112 0 15.575-9.259 28.987-22.572 35.033l-0.241 0.098c-8.188 2.837-17.626 4.475-27.445 4.475-0.005 0-0.009 0-0.014 0h0.001c-39.974 0.607-80.024 0.379-119.543 0.379zM510.407 280.045c16.612 0 33.147-0.379 49.683 0 23.59 0.683 39.671 15.853 40.429 37.395 0.092 0.978 0.145 2.116 0.145 3.265 0 20.318-16.471 36.788-36.788 36.788-0.184 0-0.368-0.001-0.552-0.004h0.028c-35.271 1.365-70.694 1.365-106.193 0-0.133 0.002-0.291 0.003-0.449 0.003-20.318 0-36.788-16.471-36.788-36.788 0-1.149 0.053-2.286 0.156-3.409l-0.011 0.144c0.91-21.618 17.067-36.788 40.732-37.243 16.536-0.455 33.147-0.076 49.683-0.076z" />
<glyph unicode="&#xe90b;" glyph-name="close" d="M821.231 325.954l-184.852 185.897 362.237 361.043c15.572 15.655 25.198 37.238 25.198 61.070s-9.626 45.415-25.202 61.073l-2.236 2.236c-15.767 15.572-37.444 25.19-61.368 25.19s-45.602-9.618-61.377-25.199l0.009 0.009-361.789-360.595-360.744 361.939c-15.655 15.572-37.238 25.198-61.070 25.198s-45.415-9.626-61.073-25.202l-2.236-2.236c-15.572-15.767-25.19-37.444-25.19-61.368s9.618-45.602 25.199-61.377l-0.009 0.009 360.296-361.491-71.074-70.477-78.39-78.39-212.773-212.027c-15.359-15.64-24.84-37.097-24.84-60.769 0-24.044 9.782-45.804 25.583-61.516l2.244-2.244c15.567-15.582 37.081-25.221 60.846-25.221s45.279 9.639 60.845 25.22l0.001 0.001 176.49 176.042 185.598 184.553 70.775-71.372 78.39-78.39 212.027-212.773c15.64-15.359 37.097-24.84 60.769-24.84 24.044 0 45.804 9.782 61.516 25.583l2.244 2.244c15.582 15.567 25.221 37.081 25.221 60.846s-9.639 45.279-25.22 60.845l-0.001 0.001z" />
<glyph unicode="&#xe90c;" glyph-name="data" d="M790.558-1.484c88.005 0 159.239 57.433 159.239 128.223v704.334c0 71.383-71.235 128.816-159.239 128.816v64.111h-79.546v-64.111h-159.091v64.111h-79.694v-64.111h-159.239v64.111h-79.546v-64.111c-88.005 0-159.239-57.433-159.239-128.816v-704.334c0-70.79 71.235-128.223 159.239-128.223h557.115zM750.785 254.961h-477.57c-1.054-0.108-2.278-0.17-3.517-0.17-18.654 0-34.040 13.99-36.238 32.050l-0.017 0.176c2.216 18.236 17.602 32.225 36.256 32.225 1.238 0 2.463-0.062 3.669-0.182l-0.152 0.012h477.57c1.054 0.108 2.278 0.17 3.517 0.17 18.654 0 34.040-13.99 36.238-32.050l0.017-0.176c-2.216-18.236-17.602-32.225-36.256-32.225-1.238 0-2.463 0.062-3.669 0.182l0.152-0.012zM750.785 447.889h-477.57c-1.054-0.108-2.278-0.17-3.517-0.17-18.654 0-34.040 13.99-36.238 32.050l-0.017 0.176c2.216 18.236 17.602 32.225 36.256 32.225 1.238 0 2.463-0.062 3.669-0.182l-0.152 0.012h477.57c1.054 0.108 2.278 0.17 3.517 0.17 18.654 0 34.040-13.99 36.238-32.050l0.017-0.176c-1.868-18.578-17.422-32.96-36.335-32.96-1.211 0-2.407 0.059-3.588 0.174l0.15-0.012zM750.785 640.816h-477.57c-1.054-0.108-2.278-0.17-3.517-0.17-18.654 0-34.040 13.99-36.238 32.050l-0.017 0.176c2.216 18.236 17.602 32.225 36.256 32.225 1.238 0 2.463-0.062 3.669-0.182l-0.152 0.012h477.57c1.054 0.108 2.278 0.17 3.517 0.17 18.654 0 34.040-13.99 36.238-32.050l0.017-0.176c-1.579-18.849-17.267-33.549-36.388-33.549-1.192 0-2.37 0.057-3.533 0.169l0.148-0.011z" />
<glyph unicode="&#xe90d;" glyph-name="delete" horiz-adv-x="940" d="M937.931 824.355c0 22.384-6.148 28.611-28.296 28.611-62.66 0-125.241 0-187.901 0-0.61-0.093-1.314-0.146-2.030-0.146-6.571 0-12.098 4.467-13.711 10.53l-0.022 0.099c-12.374 32.709-26.010 65.97-40.433 97.97-17.734 39.961-49.261 61.32-92.768 61.951q-103.251 1.34-206.581 0c-44.138-0.552-75.823-22.148-93.714-62.424-13.241-30.030-26.089-60.217-37.675-90.956-2.512-10.147-11.539-17.551-22.295-17.551-1.284 0-2.543 0.105-3.769 0.308l0.133-0.018c-59.98 0.946-119.882 0.394-179.862 0-23.015 0.236-29.005-5.833-29.005-29.163 0-10.246 0-20.414 0-30.66 0-17.97 12.217-24.985 30.030-25.222 19.468 0 33.734 0 65.261 0v-17.576c0-203.429-5.281-406.857-4.493-610.286-0.081-2.139-0.127-4.651-0.127-7.174 0-20.625 3.071-40.532 8.779-59.291l-0.377 1.44c15.764-46.424 52.966-74.64 95.527-74.719 183.882 0 367.133 0 551.015 0 0.245-0.002 0.535-0.004 0.826-0.004 24.36 0 46.388 9.983 62.217 26.080l0.012 0.012c29.47 28.205 47.786 67.856 47.786 111.785 0 0.935-0.008 1.867-0.025 2.798l0.002-0.14c0 203.429 3.232 406.857 3.232 610.286v16.788c15.764 0 37.675 0 57.537 0 16.946 0 22.305 7.882 22.542 24.591 0.394 11.034-1.419 21.438-1.813 32.079zM351.921 934.7c2.128 4.65 10.404 5.99 15.764 6.069 67.389 0.631 134.857-0.867 202.246-1.498 5.517 0 13.872 0.946 15.764-3.626 11.271-24.355 21.044-54.463 31.527-70.227h-296.985c10.798 15.921 20.65 45.084 32.079 69.438zM765.005 119.172c-6.227-29.005-12.217-33.813-41.616-33.813q-260.099 0-519.567 0c-0.936-0.136-2.017-0.214-3.115-0.214-10.412 0-19.192 6.986-21.91 16.526l-0.039 0.161c-3.577 10.278-5.776 22.134-6.066 34.463l-0.003 0.138c-0.473 206.975 1.419 414.030 1.419 621.005v13.557h591.133v-17.734c0-203.901 1.261-407.803 1.103-611.704 0.069-1.435 0.108-3.117 0.108-4.808 0-6.208-0.527-12.292-1.537-18.212l0.090 0.636zM315.271 639.685c-10.64 0-21.36 0-32 0-21.281 0-27.665-6.542-27.665-27.98q0-91.98 0-183.961 0-94.581 0-189.163c0-17.97 7.172-25.064 24.906-25.3 10.64 0 21.36 0 32 0 22.069 0 28.296 6.305 28.296 28.611q0 94.581 0 189.163 0 91.271 0 182.542c0.394 18.995-6.542 25.852-25.537 26.089zM486.148 639.685c-10.64 0-21.36 0-32 0-21.281 0-27.586-6.542-27.665-27.98q0-92.611 0-185.222 0-93.951 0-187.901c0-17.97 7.172-25.064 24.906-25.3 10.64 0 21.36 0 32 0 22.069 0 28.296 6.305 28.296 28.611q0 96 0 191.921 0 90.010 0 179.941c0.079 18.837-6.857 25.695-25.537 25.931zM656.867 639.685c-10.64 0-21.36 0-32 0-21.36 0-27.744-6.463-27.744-27.823q0-92.611 0-185.222t0-186.562c0-19.783 6.778-26.562 26.167-26.798 10.64 0 21.36 0 32 0 20.493 0 27.113 6.7 27.113 27.192q0 83.31 0 166.621 0 103.251 0 206.581c0 18.837-6.857 25.773-25.537 26.010z" />
<glyph unicode="&#xe90e;" glyph-name="embar" horiz-adv-x="1023" d="M880.103 868.268c-93.215 96.412-223.716 156.269-368.198 156.269-282.718 0-511.906-229.188-511.906-511.906 0-0.42 0.001-0.84 0.002-1.26v0.066c0-0.207 0-0.452 0-0.697 0-140.709 57.478-267.993 150.236-359.655l0.049-0.049c87.347-86.983 205.575-143.016 336.81-150.226l1.33-0.058c7.608 0 15.31-0.47 22.918-0.47 0.192 0 0.419 0 0.647 0 144.395 0 274.778 59.994 367.581 156.415l0.156 0.163c94.397 97.309 146.433 226.648 142.77 354.859 4.039 128.963-47.903 258.677-142.394 356.55zM708.497 207.768c-54.309-37.013-121.367-59.1-193.583-59.1-1.289 0-2.576 0.007-3.861 0.021l0.196-0.002c-0.072 0-0.156 0-0.241 0-96.169 0-183.541 37.667-248.166 99.053l0.156-0.147c-142.488 134.786-139.671 338.14-56.357 460.246zM821.21 323.017l-499.414 497.817c52.837 34.119 117.393 54.398 186.685 54.398 1.105 0 2.209-0.005 3.312-0.015l-0.169 0.001c0.148 0 0.323 0 0.498 0 100.249 0 190.97-40.793 256.471-106.684l0.018-0.018c132.532-132.344 129.902-328.371 52.506-445.499z" />
<glyph unicode="&#xe90f;" glyph-name="enter" d="M909.061 316.291h-494.968v-164.78l-412.212 225.384c-1.26 1.371-2.032 3.208-2.032 5.224s0.772 3.853 2.037 5.23l-0.005-0.006 412.212 224.758v-174.498h373.969c0.031 0 0.068 0 0.104 0 65.614 0 118.805 53.191 118.805 118.805v0 255.478c-0.003 0.219-0.005 0.478-0.005 0.737 0 33.067 26.806 59.873 59.873 59.873 0.296 0 0.591-0.002 0.885-0.006l-0.045 0.001c0.25 0.004 0.545 0.006 0.84 0.006 33.067 0 59.873-26.806 59.873-59.873 0-0.259-0.002-0.518-0.005-0.777v0.039-376.79c0-0.032 0-0.069 0-0.106 0-65.556-53.144-118.7-118.7-118.7-0.22 0-0.441 0.001-0.661 0.002h0.034z" />
<glyph unicode="&#xe910;" glyph-name="filter-1" d="M851.035 5.069h-673.61c-97.943 0.115-177.311 79.483-177.426 177.415v659.021c0.115 97.943 79.483 177.311 177.415 177.426h673.62c97.943-0.115 177.311-79.483 177.426-177.415v-659.021c-0.115-97.943-79.483-177.311-177.415-177.426h-0.011zM177.426 968.238c-69.946-0.115-126.618-56.787-126.733-126.722v-659.021c0.058-69.969 56.763-126.675 126.727-126.733h673.615c69.969 0.058 126.675 56.763 126.733 126.727v659.016c-0.115 69.946-56.787 126.618-126.722 126.733h-0.011zM311.56 247.686l-158.568 116.493h73.708v423.287h84.962zM600.206 772.664h193.749c25.651 0 29.402-3.853 29.503-30.416 0-6.489 0-12.876 0-19.365 0-39.439-1.115-40.554-41.568-40.554h-370.566c-28.794 0-32.545 3.549-32.444 32.038 0 64.786-4.664 58.094 57.587 58.196h163.739zM601.828 262.996c-64.583 0-129.166 0-193.749 0-25.651 0-28.895 3.244-28.996 28.388 0 65.293-7.503 61.947 60.832 61.744 116.29 0 232.58 0 348.87 0 31.328 0 34.37-3.65 34.674-34.573 0.608-60.832 3.751-55.864-55.762-55.56-55.255 0.101-110.612 0-165.868 0zM598.989 472.966q-94.897 0-189.795 0c-26.259 0-30.416 3.954-30.416 29.605 0 10.747 0.608 21.595 0 32.342-1.521 20.886 8.618 27.78 28.388 27.78q194.053 0 388.106 0c19.669 0 29.808-7.198 28.287-27.983-0.382-5.157-0.599-11.171-0.599-17.236s0.218-12.079 0.645-18.035l-0.046 0.799c1.419-20.784-8.618-28.185-28.287-28.084-65.394 0-130.788 0-196.182 0z" />
<glyph unicode="&#xe911;" glyph-name="filter-2" d="M267.355 604.768c61.643-61.643 122.576-123.995 185.435-184.016 16.929-14.938 27.551-36.684 27.551-60.912 0-2.363-0.101-4.702-0.299-7.014l0.021 0.301c-1.926-45.421-0.507-91.248-0.507-141.941 22.71 10.747 38.73 19.669 55.762 25.955 16.782 4.149 29.028 19.075 29.028 36.861 0 2.453-0.233 4.852-0.678 7.175l0.038-0.237c-1.351 12.437-2.121 26.862-2.121 41.467s0.771 29.030 2.273 43.237l-0.152-1.77c1.941 19.496 9.623 36.902 21.308 50.838l-0.118-0.145c63.975 65.8 130.281 130.281 195.777 195.574 7.401 7.401 13.789 15.715 24.738 28.185h-569.891c13.789-14.802 22.609-24.231 31.835-33.559zM826.601 695.306c-0.292 3.235-0.458 6.997-0.458 10.798s0.166 7.563 0.492 11.279l-0.034-0.482c1.825 25.752-8.415 36.905-35.688 36.803-179.758-0.71-359.515 0-539.171 0-32.139 0-35.181-5.576-35.688-49.071 0-24.231-0.912-43.799 34.269-42.988 90.335 2.028 180.771 0.71 271.107 0.71v0c90.335 0 180.771 0.608 271.107 0 24.941-1.115 36.702 7.401 34.066 32.95zM851.035 5.069h-673.61c-97.943 0.115-177.311 79.483-177.426 177.415v659.021c0.115 97.943 79.483 177.311 177.415 177.426h673.62c97.943-0.115 177.311-79.483 177.426-177.415v-659.021c-0.115-97.943-79.483-177.311-177.415-177.426h-0.011zM177.426 968.238c-69.946-0.115-126.618-56.787-126.733-126.722v-659.021c0.058-69.969 56.763-126.675 126.727-126.733h673.615c69.969 0.058 126.675 56.763 126.733 126.727v659.016c-0.115 69.946-56.787 126.618-126.722 126.733h-0.011z" />
<glyph unicode="&#xe912;" glyph-name="goto" d="M154.791 9.287l709.18 494.14-709.18 520.573v-1014.713z" />
<glyph unicode="&#xe913;" glyph-name="loction" d="M840.85 465.189v0l-234.935-406.674h-1.463c-14.402-33.892-47.411-57.227-85.87-57.227s-71.467 23.335-85.64 56.619l-0.23 0.608h-1.463l-234.057 407.552c-31.815 53.714-50.615 118.391-50.615 187.458 0 205.695 166.749 372.443 372.443 372.443s372.443-166.749 372.443-372.443c0-69.068-18.8-133.744-51.562-189.191l0.948 1.733zM518.729 789.943c-0.087 0-0.19 0-0.293 0-77.237 0-139.849-62.613-139.849-139.849s62.613-139.849 139.849-139.849c77.236 0 139.849 62.612 139.849 139.849v0c0 0 0 0 0 0 0 77.134-62.446 139.682-139.541 139.849h-0.016z" />
<glyph unicode="&#xe914;" glyph-name="modify-1" d="M531.532 777.481c-127.241-147.721-253.345-296.96-382.483-443.354-32.796-34.539-53.913-80.447-56.863-131.231l-0.026-0.562c-5.499-81.351-8.154-81.161 53.855-134.637 3.224-2.844 5.879-7.016 9.671-8.154 9.363-4.638 20.383-7.365 32.037-7.396h0.010c30.91 5.689 60.871 16.308 91.781 21.428 30.363 5.464 56.17 21.842 73.745 44.845l0.21 0.287c90.643 106.003 181.665 211.058 272.119 317.44l138.809 161.754-223.953 191.526c-3.793-4.93-6.258-8.344-8.913-11.947zM938.667 915.721c-33.307 31.799-68.912 62.172-106.162 90.494l-3.065 2.235c-12.965 9.669-29.302 15.481-46.996 15.481-21.12 0-40.306-8.28-54.489-21.77l0.033 0.031c-16.877-15.17-30.72-33.564-47.407-51.959l223.763-191.716c14.601 17.636 29.013 33.185 41.339 50.252 10.425 13.557 16.708 30.771 16.708 49.452 0 22.438-9.063 42.759-23.727 57.502l0.004-0.004zM574.388 826.406l223.194-191.526 76.99 89.695-223.384 191.716zM66.37 7.585l68.077 13.843-68.077 56.699c0-26.359 0-46.649 0-70.542z" />
<glyph unicode="&#xe915;" glyph-name="modify-2" d="M806.242 691.973c-3.355-10.686-9.502-19.69-17.591-26.447l-0.089-0.072c-11.427-10.78-22.53-22.423-33.742-33.634l-3.773-3.557-122.354 122.57 2.479 2.803c13.583 13.475 27.058 27.058 40.641 40.533 6.463 7.204 15.802 11.716 26.196 11.716s19.733-4.512 26.167-11.683l0.029-0.033c21.56-21.56 42.474-43.12 64.034-63.818 8.149-6.82 14.34-15.724 17.776-25.896l0.119-0.407zM592.905 714.935l121.168-122.138-278.665-280.282-121.384 122.677zM242.336 242.66l34.712 156.096 120.953-121.599zM512.054-0.108c-282.8 0-512.054 229.254-512.054 512.054s229.254 512.054 512.054 512.054c282.8 0 512.054-229.254 512.054-512.054v0c-0.307-282.676-229.378-511.747-512.025-512.054h-0.029zM512.054 991.66c-264.515-0.246-478.851-214.734-478.851-479.282 0-264.7 214.582-479.282 479.282-479.282 264.549 0 479.037 214.337 479.282 478.828v0.023c-0.062 264.914-214.8 479.653-479.708 479.714h-0.005z" />
<glyph unicode="&#xe916;" glyph-name="Participants" d="M608 820.736c18.802 21.456 30.272 49.748 30.272 80.719 0 67.794-54.958 122.752-122.752 122.752s-122.752-54.958-122.752-122.752c0-30.971 11.47-59.263 30.393-80.86l-0.121 0.141c-29.721-21.235-48.87-55.61-48.896-94.46v-171.78c0-17.602 14.27-31.872 31.872-31.872h218.88c17.602 0 31.872 14.27 31.872 31.872v0 171.648c0 0.023 0 0.051 0 0.079 0 38.846-19.1 73.231-48.421 94.276l-0.347 0.237zM514.944 960c32.589 0 59.008-26.419 59.008-59.008s-26.419-59.008-59.008-59.008c-32.589 0-59.008 26.419-59.008 59.008v0c0.073 32.56 26.448 58.935 59.001 59.008h0.007zM489.344 778.112h51.2c28.813-0.073 52.151-23.411 52.224-52.217v-139.527h-155.52v139.776c0.073 28.858 23.484 52.224 52.352 52.224 0 0 0 0 0 0v0zM936.064 293.248c18.802 21.456 30.272 49.748 30.272 80.719 0 67.794-54.958 122.752-122.752 122.752s-122.752-54.958-122.752-122.752c0-30.971 11.47-59.263 30.393-80.86l-0.121 0.141c-29.655-21.273-48.751-55.637-48.768-94.461v-171.779c0-17.602 14.27-31.872 31.872-31.872v0h219.392c17.602 0 31.872 14.27 31.872 31.872v0 171.776c-0.174 38.932-19.505 73.312-49.046 94.221l-0.362 0.243zM843.52 432.768c0.038 0 0.083 0 0.128 0 32.589 0 59.008-26.419 59.008-59.008s-26.419-59.008-59.008-59.008c-32.589 0-59.008 26.419-59.008 59.008v0c0 0 0 0 0 0 0 32.615 26.403 59.063 59.001 59.136h0.007zM817.92 250.88h51.2c28.843 0 52.224-23.381 52.224-52.224v0-139.648h-155.264v139.776c0 28.843 23.381 52.224 52.224 52.224v0zM278.656 293.248c18.802 21.456 30.272 49.748 30.272 80.719 0 67.794-54.958 122.752-122.752 122.752s-122.752-54.958-122.752-122.752c0-30.971 11.47-59.263 30.393-80.86l-0.121 0.141c-29.705-21.249-48.848-55.616-48.896-94.456v-171.784c0-17.602 14.27-31.872 31.872-31.872v0h218.88c17.602 0 31.872 14.27 31.872 31.872v0 171.776c-0.017 38.827-19.113 73.191-48.421 94.227l-0.347 0.237zM185.6 432.896c0.152 0.001 0.332 0.002 0.512 0.002 32.589 0 59.008-26.419 59.008-59.008s-26.419-59.008-59.008-59.008c-32.543 0-58.934 26.345-59.008 58.871v0.007c0 0.001 0 0.002 0 0.003 0 32.435 26.113 58.771 58.462 59.132h0.034zM160 251.008h51.2c28.813-0.073 52.151-23.411 52.224-52.217v-139.783h-154.624v139.776c0.072 28.724 23.265 52.007 51.947 52.224h0.021zM546.688 305.024v117.376c0 17.673-14.327 32-32 32s-32-14.327-32-32v0-116.736l-82.56-82.56c-5.762-5.767-9.326-13.731-9.326-22.528s3.564-16.761 9.326-22.528v0c5.847-5.584 13.786-9.021 22.528-9.021s16.681 3.437 22.541 9.033l-0.013-0.012 69.376 69.376 69.376-69.376c5.823-6.15 14.045-9.978 23.162-9.978 17.602 0 31.872 14.27 31.872 31.872 0 9.116-3.827 17.339-9.963 23.148l-0.015 0.014z" />
<glyph unicode="&#xe917;" glyph-name="people" d="M106.338 70.42v0s386.914-170.299 813.056 0c20.753 20.078 33.637 48.181 33.637 79.292 0 4.869-0.316 9.665-0.927 14.368l0.059-0.555c-2.479 47.9-29.195 89.050-68.034 111.659l-0.653 0.351c-55.826 34.903-122.314 70.803-191.030 102.713l-11.722 4.885c-61.125 27.884-75.776 73.098-32.453 124.928 55.437 65.507 91.881 148.69 99.921 240.026l0.116 1.638c10.082 106.181-37.494 204.012-121.147 244.815-86.174 42.063-173.292 40.33-252.062-14.178-85.701-58.604-104.448-147.614-95.468-244.342 8.866-90.226 45.351-170.58 100.767-233.957l-0.415 0.485c35.919-42.378 23.946-91.687-26.782-112.798-19.377-8.034-39.227-15.754-58.132-23.946-68.687-31.508-136.113-66.166-189.046-122.722-41.275-43.166-52.145-125.401 0.315-172.662z" />
<glyph unicode="&#xe918;" glyph-name="remind-1" d="M615.068 73.016c-15.242-43.070-55.616-73.37-103.068-73.37s-87.826 30.3-102.832 72.607l-0.236 0.763h-408.932l146.254 292.508v292.73c0 202.057 163.8 365.857 365.857 365.857s365.857-163.8 365.857-365.857v0-292.73l146.031-292.508z" />
<glyph unicode="&#xe919;" glyph-name="remind-2" d="M874.002 874.396c-92.695 92.695-220.752 150.028-362.199 150.028-282.895 0-512.227-229.332-512.227-512.227 0-141.448 57.333-269.504 150.028-362.199v0c92.695-92.695 220.752-150.028 362.199-150.028 282.895 0 512.227 229.332 512.227 512.227 0 141.448-57.333 269.504-150.028 362.199v0zM511.803 86.219c-235.106 0.090-425.663 190.702-425.663 425.82 0 235.174 190.646 425.82 425.82 425.82 235.119 0 425.73-190.556 425.82-425.654v-0.009c-0.179-235.189-190.789-425.798-425.961-425.978h-0.017zM557.629 810.854c-50.314 26.85-112.36 4.724-130.864-45.669-10.315-28.11-7.087-56.613-3.622-84.881 9.921-79.684 32.125-156.927 57.716-233.618 6.22-18.819 17.48-28.976 30.944-28.976s24.724 10 30.787 28.897q11.89 36.614 22.834 73.542c18.897 64.094 34.803 128.659 38.897 198.973-0.125 9.469-0.751 18.644-1.853 27.673l0.121-1.217c-3.411 28.496-20.543 52.358-44.501 65.053l-0.459 0.222zM511.095 366.057c-43.621-0.709-74.645-31.496-74.015-73.857s32.047-71.731 74.723-71.337 74.645 30.472 74.251 73.227-31.181 72.755-74.959 71.967z" />
<glyph unicode="&#xe91a;" glyph-name="repeat" horiz-adv-x="1147" d="M486.612 886.479l-135.617 119.114c-11.458 11.321-27.214 18.314-44.603 18.314-6.736 0-13.227-1.049-19.318-2.993l0.449 0.124c-24.32-7.583-41.667-29.896-41.667-56.261 0-16.401 6.713-31.233 17.54-41.901l0.007-0.007c13.964-13.964 29.197-26.446 43.795-39.775l-1.269-3.174h-15.233c-34.909 0-69.818 0-104.727 0-1.631 0.053-3.549 0.083-5.474 0.083-72.481 0-134.935-42.93-163.322-104.75l-0.46-1.118c-5.925-13.857-11.644-30.772-16.144-48.177l-0.57-2.6v-418.698c1.009-1.819 1.876-3.927 2.49-6.14l0.049-0.207c13.862-81.202 81.314-143.011 164.102-148.075l0.5-0.024c83.147-3.174 166.294-1.481 249.441-1.481 1.504-0.135 3.253-0.212 5.020-0.212 32.951 0 59.663 26.712 59.663 59.663s-26.712 59.663-59.663 59.663c-1.767 0-3.516-0.077-5.244-0.227l0.224 0.016c-75.954 0-151.907 0-228.073 0-1.463-0.126-3.166-0.198-4.886-0.198-33.301 0-60.298 26.996-60.298 60.298 0 1.857 0.084 3.695 0.248 5.51l-0.017-0.234c0 119.96 1.058 239.921 0 359.669-0.114 1.423-0.178 3.081-0.178 4.755 0 35.054 28.417 63.471 63.471 63.471 1.254 0 2.499-0.036 3.734-0.108l-0.171 0.008c29.197 0 58.393 0 87.379 0h29.197c-0.727-4.88-3.195-9.082-6.739-12.034l-0.031-0.025-29.831-24.542c-15.061-10.836-24.753-28.315-24.753-48.058 0-13.867 4.782-26.617 12.786-36.692l-0.093 0.121c11.174-14.334 28.443-23.466 47.845-23.466 13.901 0 26.707 4.688 36.924 12.568l-0.141-0.104q88.013 70.241 174.122 142.598c12.469 10.51 20.337 26.138 20.337 43.603 0 16.875-7.345 32.035-19.012 42.457l-0.055 0.049c-10.579 10.579-20.734 19.888-31.736 29.197zM1144.807 723.993c-13.361 82.902-82.53 146.049-167.169 149.989l-0.394 0.015c-74.896 1.904-150.003 1.904-224.899 1.904-1.504 0.135-3.253 0.212-5.020 0.212-32.951 0-59.663-26.712-59.663-59.663s26.712-59.663 59.663-59.663c1.767 0 3.516 0.077 5.244 0.227l-0.224-0.016c68.76 0 137.521 0 206.493 0 0.782 0.034 1.699 0.054 2.621 0.054 35.054 0 63.471-28.417 63.471-63.471 0-1.135-0.030-2.264-0.089-3.384l0.007 0.157q-2.116-179.2 0-358.4c0.203-1.904 0.318-4.112 0.318-6.348 0-35.054-28.417-63.471-63.471-63.471-1.825 0-3.632 0.077-5.417 0.228l0.233-0.016c-37.236 0-74.473 0-111.709 0-3.597 0-7.193 0-14.175 1.481 5.289 5.712 8.251 9.732 12.060 12.906 11.002 9.309 22.638 17.772 33.005 27.504 11.582 10.704 18.81 25.972 18.81 42.929 0 23.826-14.269 44.319-34.728 53.399l-0.372 0.148c-7.764 3.745-16.882 5.933-26.511 5.933-16.636 0-31.748-6.531-42.909-17.17l0.025 0.024-162.909-133.501c-15.259-10.818-25.097-28.41-25.097-48.301 0-19.061 9.034-36.011 23.054-46.803l0.139-0.103c22.426-19.888 45.276-39.564 67.914-59.451l94.783-83.147c11.509-11.63 27.474-18.831 45.121-18.831 4.473 0 8.839 0.463 13.051 1.343l-0.413-0.072c22.46 4.008 40.224 20.498 46.029 41.908l0.094 0.406c1.717 5.131 2.707 11.039 2.707 17.178 0 17.088-7.674 32.384-19.763 42.629l-0.081 0.067c-13.329 12.694-27.504 24.331-41.045 36.39 4.379 2.667 9.675 4.247 15.34 4.247 0.334 0 0.667-0.005 0.999-0.016l-0.048 0.001c37.871 0 75.531 0 113.19 0 1.337-0.036 2.911-0.056 4.49-0.056 72.396 0 134.765 42.931 163.038 104.723l0.459 1.118c5.784 13.573 11.36 30.138 15.738 47.183l0.553 2.536v420.39c-0.98 1.343-1.833 2.877-2.488 4.512l-0.050 0.142z" />
<glyph unicode="&#xe91b;" glyph-name="reserve" d="M1018.95 580.945c-11.685 86.898-43.967 164.573-91.754 230.24l1-1.443c-31.395 43.738-68.053 81.125-109.634 112.303l-1.321 0.948c-53.486 40.782-117.199 71.194-186.491 86.914l-3.28 0.626c-26.17 5.509-52.34 7.958-78.051 11.937-2.143 0-4.132 0.918-6.275 1.53h-62.135l-37.954-5.050c-69.548-9.356-132.308-31.662-188.142-64.483l2.35 1.277c-61.901-35.719-113.749-81.806-154.857-136.435l-0.939-1.303c-40.931-53.691-71.41-117.674-87.074-187.265l-0.619-3.271c-5.663-25.405-8.264-51.575-12.243-77.898 0-2.449-1.071-4.744-1.53-7.040v-62.135c1.53-11.784 3.367-23.568 4.744-35.506 9.357-73.64 33.592-140.091 69.633-198.482l-1.224 2.13c73.4-120.198 191.684-206.842 331.003-237.056l3.393-0.617c21.273-4.591 43.158-6.275 64.737-9.336l8.723-1.683h62.135l36.271 4.897c87.663 11.568 166.018 44.272 232.020 92.798l-1.387-0.973c119.317 85.979 199.47 219.892 212.145 372.952l0.123 1.846c0 3.214 1.071 6.428 1.683 9.489v62.135q-2.449 18.977-5.050 37.954zM512.23 111.414c-0.136 0-0.297 0-0.459 0-221.026 0-400.203 179.177-400.203 400.203s179.177 400.203 400.203 400.203c220.811 0 399.854-178.828 400.203-399.557v-0.034c0-0.046 0-0.1 0-0.154 0-220.957-178.86-400.139-399.694-400.661h-0.050zM685.013 382.45c-41.015 41.015-82.030 81.877-122.433 122.433-3.268 3.507-5.369 8.141-5.66 13.258l-0.003 0.056c0 37.801 0 75.755 0 113.557 0 30.608 0 62.135 0 93.202 0.004 0.229 0.007 0.499 0.007 0.769 0 23.369-18.773 42.353-42.061 42.694h-0.032c-0.388 0.013-0.845 0.020-1.304 0.020-23.92 0-43.311-19.391-43.311-43.311 0-0.922 0.029-1.838 0.086-2.746l-0.006 0.124c0-37.648 0-75.143 0-112.792s0-73.613 0-110.343c-0.008-0.364-0.013-0.793-0.013-1.223 0-16.748 7.252-31.803 18.786-42.195l0.051-0.045c25.864-24.946 50.963-50.657 76.521-76.521s53.411-53.718 80.5-80.041c7.833-7.833 18.655-12.678 30.608-12.678 23.907 0 43.287 19.38 43.287 43.287 0 11.953-4.845 22.775-12.678 30.608v0c-8.417 8.111-15.457 14.845-22.344 21.885z" />
<glyph unicode="&#xe91c;" glyph-name="search" d="M999.906 101.798l-274.824 286.118c49.604 65.855 79.443 149.040 79.443 239.194 0 220.81-179.002 399.812-399.812 399.812s-399.812-179.002-399.812-399.812c0-220.81 179.002-399.812 399.812-399.812 90.952 0 174.81 30.37 241.988 81.522l-0.979-0.715 273.167-284.461c10.388-12.018 25.653-19.578 42.684-19.578 31.105 0 56.32 25.215 56.32 56.32 0 16.281-6.908 30.948-17.953 41.231l-0.034 0.031zM120.019 625.393c0 158.018 128.099 286.118 286.118 286.118s286.118-128.099 286.118-286.118c0-158.018-128.099-286.118-286.118-286.118v0c-158.018 0-286.118 128.099-286.118 286.118v0z" />
<glyph unicode="&#xe91d;" glyph-name="sort" d="M182.857 918.349c34.783 0 69.567 0 104.188 0 0.474 0.005 1.033 0.007 1.594 0.007 48.561 0 92.474-19.903 124.026-51.996l0.024-0.024q143.035-141.897 285.095-284.77l90.372-90.372c33.971-33.971 33.971-73.63 0-107.601l-253.074-254.375c-33.808-33.971-73.793-33.971-107.439 0q-189.034 189.196-377.742 378.88c-30.133 30.22-48.764 71.922-48.764 117.975 0 0.296 0.001 0.592 0.002 0.887v-0.046c-1.138 73.793-1.138 147.586-1.138 221.379-0.015 0.54-0.024 1.175-0.024 1.812 0 37.703 30.564 68.267 68.267 68.267 0.637 0 1.272-0.009 1.905-0.026l-0.093 0.002zM103.375 746.707c0-0.096-0.001-0.21-0.001-0.324 0-37.882 30.71-68.592 68.592-68.592s68.592 30.71 68.592 68.592c0 37.882-30.71 68.592-68.592 68.592-0.114 0-0.228 0-0.342-0.001h0.018c-37.483-0.541-67.726-30.784-68.266-68.215l-0.001-0.051zM626.428 136.858c28.607 28.282 57.051 56.239 85.008 84.196l162.54 163.515c14.847 12.775 24.191 31.587 24.191 52.582s-9.344 39.807-24.1 52.505l-0.091 0.076-376.117 376.93c-27.467 25.824-62.277 44.137-100.969 51.487l-1.268 0.2h22.43c6.788 0.159 14.785 0.25 22.804 0.25 28.586 0 56.903-1.153 84.906-3.415l-3.685 0.239c38.054-5.183 71.253-22.865 96.005-48.703l0.056-0.058 377.417-377.092c14.853-12.803 24.198-31.642 24.198-52.663s-9.345-39.859-24.108-52.587l-0.090-0.076-252.262-252.587c-38.684-38.847-78.669-37.709-116.866 5.201z" />
<glyph unicode="&#xe91e;" glyph-name="theme" d="M931.988 746.036l-274.848 274.848c-1.569 1.885-3.906 3.085-6.525 3.116h-0.005q-220.234 0-440.468 0c-11.285-0.129-22.16-1.637-32.541-4.363l0.93 0.208c-56.105-14.365-96.916-64.472-96.916-124.11 0-0.454 0.002-0.908 0.007-1.362l-0.001 0.069q0-191.295 0-382.442v-73.461q0-154.194 0-308.387c-0.006-0.482-0.010-1.050-0.010-1.62 0-14.433 2.339-28.32 6.658-41.302l-0.266 0.923c17.189-52.106 65.435-89.049 122.308-89.049 0.41 0 0.819 0.002 1.228 0.006h401.376c65.15 0 130.3 0 195.45 0 0.194-0.001 0.423-0.002 0.652-0.002 44.221 0 83.038 23.135 105.008 57.961l0.302 0.512c13.036 19.479 20.804 43.441 20.804 69.218 0 0.918-0.010 1.833-0.029 2.746l0.002-0.136q0 304.083 0 608.464c0.026 0.268 0.040 0.58 0.040 0.895 0 2.865-1.212 5.448-3.151 7.262l-0.006 0.005zM679.402 875.594l107.594-107.594h-107.594zM849.772 677.621v-547.469c0.039-0.684 0.062-1.483 0.062-2.288 0-23.359-18.936-42.296-42.296-42.296-0.805 0-1.604 0.022-2.398 0.067l0.11-0.005h-593.326c-0.684-0.039-1.483-0.062-2.288-0.062-23.359 0-42.296 18.936-42.296 42.296 0 0.805 0.022 1.604 0.067 2.398l-0.005-0.11v763.548c-0.039 0.684-0.062 1.483-0.062 2.288 0 23.359 18.936 42.296 42.296 42.296 0.805 0 1.604-0.022 2.398-0.067l-0.11 0.005h381.7v-255.555h256.148zM337.92 426.667h341.333v84.888h-341.333zM337.92 256h255.555v85.333h-255.555z" />
<glyph unicode="&#xe91f;" glyph-name="tick" d="M992.39 703.443l-558.303-574.998c-23.499-24.488-56.498-39.703-93.050-39.703s-69.551 15.216-93.008 39.659l-0.042 0.044-209.475 215.708c-23.842 24.833-38.523 58.619-38.523 95.833s14.681 71 38.568 95.88l-0.045-0.047c23.499 24.488 56.498 39.703 93.050 39.703s69.551-15.216 93.008-39.659l0.042-0.044 116.202-119.763 465.475 479.277c23.499 24.488 56.498 39.703 93.050 39.703s69.551-15.216 93.008-39.659l0.042-0.044c23.906-24.846 38.63-58.676 38.63-95.944s-14.724-71.098-38.673-95.989l0.043 0.045z" />
<glyph unicode="&#xe920;" glyph-name="time-period-1" d="M193.67 571.837h55.118c15.196 0 27.514-12.319 27.514-27.514v-55.118c0-15.196-12.319-27.514-27.514-27.514h-55.118c-15.196 0-27.514 12.319-27.514 27.514v55.118c0 15.196 12.319 27.514 27.514 27.514zM193.67 351.633h55.118c15.196 0 27.514-12.319 27.514-27.514v-55.118c0-15.196-12.319-27.514-27.514-27.514h-55.118c-15.196 0-27.514 12.319-27.514 27.514v55.118c0 15.196 12.319 27.514 27.514 27.514zM413.874 571.837h55.118c15.196 0 27.514-12.319 27.514-27.514v-55.118c0-15.196-12.319-27.514-27.514-27.514h-55.118c-15.196 0-27.514 12.319-27.514 27.514v55.118c0 15.196 12.319 27.514 27.514 27.514zM413.874 351.633h55.118c15.196 0 27.514-12.319 27.514-27.514v-55.118c0-15.196-12.319-27.514-27.514-27.514h-55.118c-15.196 0-27.514 12.319-27.514 27.514v55.118c0 15.196 12.319 27.514 27.514 27.514zM193.67 957.217h55.118c15.196 0 27.514-12.319 27.514-27.514v-110.147c0-15.196-12.319-27.514-27.514-27.514h-55.118c-15.196 0-27.514 12.319-27.514 27.514v110.147c0 15.196 12.319 27.514 27.514 27.514zM634.079 957.217h55.118c15.196 0 27.514-12.319 27.514-27.514v-110.147c0-15.196-12.319-27.514-27.514-27.514h-55.118c-15.196 0-27.514 12.319-27.514 27.514v110.147c0 15.196 12.319 27.514 27.514 27.514zM111.037 136.147c-30.364 0-48.707 19.679-48.707 50.31v440.409c0 30.364 18.343 52.358 48.707 52.358h660.614c0.457 0.015 0.995 0.023 1.535 0.023 26.735 0 48.693-20.456 51.075-46.571l0.015-0.2c20.774-1.029 40.33-4.215 59.079-9.351l-1.913 0.447v113.441c0.001 0.134 0.001 0.293 0.001 0.452 0 60.886-49.005 110.327-109.725 111.030l-0.066 0.001h-32.59v-28.85c0-30.364-19.59-69.098-49.953-69.098h-55.029c-30.364 0-46.392 38.734-46.392 69.098v28.85h-293.843v-28.85c0-30.364-14.781-69.098-45.145-69.098h-55.029c-30.364 0-60.104 38.734-60.104 69.098v28.85h-22.528c-61.237-0.601-110.688-50.209-111.037-111.449v-550.59c0-60.817 50.221-121.633 111.037-121.633h636.305c-44.522 8.904-84.591 35.617-118.517 71.235zM807.268 569.166c-120.583 0-218.335-97.752-218.335-218.335s97.752-218.335 218.335-218.335c120.583 0 218.335 97.752 218.335 218.335v0c0 120.583-97.752 218.335-218.335 218.335v0zM899.784 233.027c-5.137-5.418-12.359-8.816-20.375-8.904h-0.016c-0.034 0-0.074 0-0.114 0-7.407 0-14.124 2.956-19.036 7.752l0.005-0.005c-9.795 9.528-19.59 19.322-29.028 28.85l-10.685 10.863-11.665 11.665c-8.459 8.904-17.185 17.363-25.912 25.734-7.021 6.408-11.409 15.598-11.409 25.813 0 0.317 0.004 0.632 0.013 0.947l-0.001-0.046c0 13-2.849 26.179-2.849 38.912l-2.938 15.226v16.74c0 12.733 2.849 25.912 2.938 38.912 0 0.004 0 0.009 0 0.013 0 16.376 13.275 29.651 29.651 29.651 0.313 0 0.625-0.005 0.936-0.014l-0.045 0.001c15.509-0.198 28.029-12.718 28.227-28.208v-0.019c0-10.774 4.808-21.727 4.808-32.323 0-4.541 4.719-8.904 4.719-13.713v-13.535c0-13.891-4.363-28.227-4.274-42.296 0-0.445-1.692-1.425-1.425-1.781 15.85-16.028 30.898-32.145 46.57-47.816l15.137-15.672c2.493-2.493 4.719-4.986 7.213-7.569 4.821-5.016 7.79-11.843 7.79-19.363 0-7.744-3.148-14.752-8.234-19.815l-0.001-0.001z" />
<glyph unicode="&#xe921;" glyph-name="time-period-2" d="M257.664 652.8h1.28c27.008 0 44.8 21.376 45.568 51.2 0 18.816-1.152 38.4-1.28 57.216 0 8.192-1.536 17.024-1.536 25.6v6.784h2.688s0 11.392 0 17.024c0 18.56 0 38.4 0 57.6 0 30.72-19.712 53.376-46.336 53.376v0c-26.624 0-44.672-21.376-44.928-51.2 0-54.4 0-111.744 0-166.4 0.512-31.104 17.28-51.2 44.544-51.2zM606.464 652.8v0c27.648 0 45.312 20.224 46.080 50.048 0 18.944 0 40.32 0 58.88 0 5.632 0 6.272 0 19.072h-5.632v4.736c0 8.448 2.944 16.896 2.944 25.6 0 19.2 1.664 39.040 1.152 58.624 0.031 0.648 0.049 1.407 0.049 2.17 0 25.169-19.476 45.79-44.18 47.613l-0.157 0.009c-25.6 0-44.928-20.608-45.312-49.664 0-55.936 0-112.896 0-166.4 0.256-30.336 17.536-50.688 45.056-50.688zM327.296 819.2h204.8v-64h-204.8v64zM226.944 271.744c33.329 1.555 59.762 28.955 59.762 62.528s-26.433 60.973-59.623 62.523l-0.139 0.005h-1.28c-17.437-1.031-32.831-9.010-43.59-21.181l-0.058-0.067c-10.772-11.113-17.411-26.285-17.411-43.008 0-0.225 0.001-0.45 0.004-0.674v0.034c3.41-31.894 28.783-56.916 60.543-59.757l0.257-0.019zM270.464 559.36c-10.501 10.317-24.91 16.687-40.807 16.687-0.819 0-1.634-0.017-2.445-0.050l0.116 0.004h-0.768c-0.615 0.023-1.338 0.036-2.064 0.036-32.319 0-58.608-25.814-59.375-57.949l-0.001-0.071c-0.009-0.39-0.015-0.85-0.015-1.312 0-15.976 6.461-30.443 16.912-40.93l-0.002 0.002c10.911-10.916 25.987-17.669 42.641-17.669 0.264 0 0.528 0.002 0.791 0.005h0.856c0.163-0.002 0.356-0.002 0.549-0.002 16.544 0 31.561 6.539 42.607 17.173l-0.019-0.019c11.057 10.806 17.945 25.837 18.048 42.477v0.019c0.008 0.354 0.013 0.77 0.013 1.188 0 15.836-6.521 30.15-17.025 40.401l-0.011 0.011zM423.936 458.88c33.427 0.292 60.412 27.458 60.412 60.926 0 33.65-27.278 60.928-60.928 60.928s-60.928-27.278-60.928-60.928c0-16.284 6.388-31.076 16.796-42.007l-0.024 0.025c10.915-11.409 26.153-18.603 43.074-18.943l0.062-0.001zM423.296 268.8v0c33.914 0.575 61.186 28.202 61.186 62.2 0 0.183-0.001 0.366-0.002 0.548v-0.028c0.014 0.505 0.022 1.1 0.022 1.696 0 16.931-6.37 32.373-16.845 44.062l0.055-0.062c-10.859 11.601-26.080 19.004-43.033 19.581l-0.103 0.003c-16.883-0.408-32.037-7.481-42.997-18.677l-0.011-0.011c-11.068-11.197-17.969-26.533-18.176-43.48v-0.040c-0.018-0.563-0.028-1.225-0.028-1.89 0-16.725 6.327-31.973 16.718-43.479l-0.051 0.057c10.828-11.875 26.067-19.568 43.107-20.473l0.157-0.007zM686.592 760.32c1.675-1.229 3.74-2.022 5.981-2.174l0.035-0.002h22.016l35.712-0.896c33.92-1.152 42.752-10.112 43.136-43.392 0-12.8 0-27.264 0-42.112 10.666 1.711 22.962 2.689 35.487 2.689 0.214 0 0.429 0 0.643-0.001h-0.033c12.916-0.048 25.545-1.117 37.856-3.13l-1.376 0.186c0 15.872 0 32.128 0 48.128 0.009 0.506 0.015 1.104 0.015 1.702 0 49.794-36.83 90.986-84.736 97.82l-0.527 0.062c-10.014 1.392-21.585 2.187-33.341 2.187-0.834 0-1.666-0.004-2.498-0.012l0.127 0.001c-9.6 0-19.328-1.024-28.8-1.28s-19.584-1.28-29.312-1.28h-14.080v-54.784l7.168-2.176c1.536-0.512 5.76-1.152 6.528-1.536zM1016.832 459.904c0 3.2-1.28 6.272-1.664 9.344-4.641 33.171-17.051 62.786-35.328 87.848l0.384-0.552c-12.042 16.743-26.079 31.065-41.991 43.029l-0.505 0.363c-20.602 15.687-45.141 27.383-71.825 33.424l-1.263 0.24c-6.656 1.408-13.44 2.304-19.968 3.2l-9.216 1.28h-1.024s0 0.768-0.896 0.896v0.768h-24.448l-14.848-2.56c-26.622-3.765-50.599-12.422-71.935-25.067l0.895 0.491c-23.659-13.811-43.467-31.579-59.151-52.603l-0.369-0.517c-15.612-20.496-27.261-44.903-33.295-71.444l-0.241-1.26c-1.408-6.656-2.432-12.8-3.328-19.968 0-3.072-0.896-6.144-1.28-9.216 0 0 0-0.896 0-1.408s-1.792 0-1.792-0.896h-1.664v-23.936l1.664-0.64c0-1.408 1.152-2.816 1.408-4.224s1.28-5.888 1.536-8.96c3.561-28.263 12.813-53.778 26.585-76.221l-0.473 0.829c28.117-45.998 73.383-79.164 126.698-90.77l1.302-0.238c5.632-1.152 11.264-1.92 16.768-2.56l7.68-1.024h1.92s0.768-2.048 1.152-2.176v-2.048h23.68l4.608 2.56c3.072 0 6.144 1.792 9.216 2.176 33.666 4.514 63.748 17.087 89.115 35.705l-0.539-0.377c45.723 33.039 76.418 84.439 81.234 143.169l0.046 0.703c-0.017 0.287-0.026 0.622-0.026 0.96s0.009 0.673 0.028 1.006l-0.002-0.046s1.152 0.896 1.152 1.28h1.024v23.936zM820.864 299.648c-78.010 2.394-140.338 66.206-140.338 144.576s62.328 142.182 140.118 144.571l0.22 0.005c78.010-2.394 140.338-66.206 140.338-144.576s-62.328-142.182-140.118-144.571l-0.22-0.005zM891.008 396.8l-11.776 11.776-36.096 35.584s-2.176 1.024-2.176 1.28c0 10.624-1.664 21.504-1.664 32v20.608c0 7.936 1.664 16.256 1.536 24.448-0.286 11.092-9.346 19.974-20.48 19.974-11.314 0-20.486-9.172-20.486-20.486 0-0.18 0.002-0.36 0.007-0.538l-0.001 0.026c0-9.856 1.024-19.712 1.024-29.44v-24.32c0-9.6 0-19.584 0-29.44-0.014-0.316-0.022-0.687-0.022-1.060 0-7.48 3.208-14.21 8.323-18.891l0.019-0.018c6.656-6.4 12.8-12.8 19.456-19.456l8.704-8.832 8.064-8.064c7.168-7.168 14.592-14.592 21.888-21.76 3.714-3.641 8.806-5.888 14.423-5.888 0.015 0 0.029 0 0.044 0h-0.002c5.618 0.375 10.594 2.853 14.199 6.647l0.009 0.009c3.733 3.806 6.037 9.026 6.037 14.784s-2.304 10.978-6.041 14.787l0.003-0.003zM793.6 208.384c0.16-1.461 0.252-3.156 0.252-4.872 0-10.548-3.458-20.289-9.302-28.15l0.090 0.126c-6.528-6.528-18.944-9.088-41.344-9.088v0h-626.432c-35.072 0-44.672 9.472-44.544 43.904 0 164.352 0 334.336 0 501.504 0 37.248 7.68 44.928 45.824 45.312h22.656c6.144 0 12.8-0.768 18.688-0.768s12.8-0.768 19.584-0.768h7.168v63.616h-7.040c-8.192 0-16.128 1.664-23.808 1.792s-14.592 0.896-21.12 0.896c-9.6 0-17.536 0-24.96 0-68.224-1.408-109.312-43.008-109.312-111.616q0-113.152 0-226.304c0-89.6 0-181.376 0-272.128 0-69.632 41.856-110.080 112.128-110.592 29.44 0 58.368 1.152 82.816 1.152h62.72c41.088 0 82.048-1.408 123.136-1.408s82.048-0.768 123.136-0.768c99.328 0 175.104 0 246.016 0s113.024 38.4 115.968 108.416c-10.85-1.81-23.352-2.845-36.096-2.845s-25.246 1.035-37.426 3.024l1.33-0.179z" />
<glyph unicode="&#xe922;" glyph-name="top" d="M308.776 225.827l-76.313-62.211-186.634-150.759c-4.176-4.229-9.973-6.849-16.382-6.849s-12.207 2.619-16.38 6.846l-0.002 0.002c-8.917 8.917-9.332 18.871 0 31.313l190.574 262.532c3.318 4.562 6.221 9.124 9.954 14.516l-195.759 195.759c-10.915 8.421-17.877 21.505-17.877 36.215 0 15.164 7.399 28.601 18.783 36.896l0.13 0.091c43.721 41.759 103.090 67.459 168.462 67.459 8.151 0 16.209-0.4 24.155-1.18l-1.006 0.080c34.607-2.445 65.488-16.673 89.048-38.65l-0.086 0.079 252.786 252.578c-15.391 16.12-24.863 38.007-24.863 62.106 0 2.958 0.143 5.883 0.422 8.767l-0.029-0.367c1.095 34.68 23.315 63.901 54.171 75.297l0.575 0.186c10.304 4.814 22.372 7.623 35.096 7.623 23.39 0 44.564-9.492 59.879-24.833l0.001-0.001c38.986-37.534 76.52-75.691 114.469-113.847 68.847-68.847 137.902-137.28 206.127-207.371 15.794-16.23 25.535-38.421 25.535-62.887 0-28.78-13.478-54.412-34.466-70.929l-0.193-0.147c-15.211-11.101-34.278-17.761-54.901-17.761-24.434 0-46.685 9.349-63.369 24.666l0.068-0.062-253.2-252.786c25.345-28.372 40.836-66.017 40.836-107.28 0-9.943-0.899-19.675-2.621-29.121l0.149 0.987c-5.597-59.189-31.818-111.379-71.297-150.099l-0.039-0.038c-8.118-7.995-19.267-12.932-31.569-12.932-13.31 0-25.27 5.778-33.508 14.963l-0.037 0.042-198.454 198.454zM536.885 631.861l37.742 37.742c24.47 24.47 49.147 48.732 73.202 73.617 4.748 3.832 7.76 9.652 7.76 16.175s-3.012 12.343-7.721 16.144l-0.039 0.031c-3.823 4.384-9.418 7.139-15.657 7.139s-11.834-2.755-15.635-7.115l-0.021-0.025-4.977-4.977-212.141-212.763c-2.903-2.903-7.673-6.014-8.087-9.332-1.148-3.47-1.81-7.464-1.81-11.613s0.662-8.143 1.887-11.883l-0.076 0.27c5.131-5.763 12.476-9.459 20.688-9.745l0.050-0.001c5.599 0 12.442 5.806 17.212 10.576 36.912 34.838 72.165 70.299 107.626 105.759z" />
<glyph unicode="&#xe923;" glyph-name="clock" d="M1008.835 635.996c-57.362 224.927-258.148 388.599-497.162 388.599-282.95 0-512.327-229.377-512.327-512.327s229.377-512.327 512.327-512.327c282.879 0 512.211 229.261 512.327 512.113v0.011c0 0.065 0 0.142 0 0.22 0 43.931-5.531 86.57-15.934 127.258l0.769-3.547zM512.065 97.262c-0.078 0-0.17 0-0.261 0-229.162 0-414.934 185.772-414.934 414.934s185.772 414.934 414.934 414.934c229.162 0 414.934-185.772 414.934-414.934 0-0.046 0-0.092 0-0.137v0.007c0-0.039 0-0.085 0-0.131 0-229.017-185.655-414.672-414.672-414.672-0.046 0-0.092 0-0.137 0h0.007zM580.829 512.065c0 0.005 0 0.011 0 0.017 0 29.091-18.065 53.963-43.589 64.009l-0.467 0.162v332.182h-49.546v-332.182c-24.538-9.686-41.95-32.406-43.783-59.401l-0.011-0.211h-307.736v-17.648h308.782c6.398-31.963 34.236-55.708 67.62-55.708 4.987 0 9.851 0.53 14.538 1.537l-0.453-0.081 146.416-208.382 40.526 28.499-145.501 206.813c8.249 11.162 13.204 25.196 13.204 40.388 0 0.003 0 0.005 0 0.008v0z" />
<glyph unicode="&#xe924;" glyph-name="love" horiz-adv-x="1151" d="M863.098 1024c-156.73 0-283.749-139.538-287.588-313.125v0c-3.672 173.588-131.025 313.125-287.922 313.125s-287.588-143.377-287.588-320.303c0-7.678 0-15.356 0-22.867 1.168-376.385 572.505-680.998 574.675-680.998s574.174 304.613 575.343 680.998c0 7.511 0 15.189 0 22.867 0.668 176.926-128.188 320.303-286.92 320.303z" />
<glyph unicode="&#xe925;" glyph-name="nav" horiz-adv-x="1357" d="M59.726 1024h1237.072c32.986 0 59.726-26.74 59.726-59.726v-27.175c0-32.986-26.74-59.726-59.726-59.726h-1237.072c-32.986 0-59.726 26.74-59.726 59.726v27.175c0 32.986 26.74 59.726 59.726 59.726zM59.726 594.422h1237.072c32.986 0 59.726-26.74 59.726-59.726v-27.175c0-32.986-26.74-59.726-59.726-59.726h-1237.072c-32.986 0-59.726 26.74-59.726 59.726v27.175c0 32.986 26.74 59.726 59.726 59.726zM59.726 146.627h1237.072c32.986 0 59.726-26.74 59.726-59.726v-27.175c0-32.986-26.74-59.726-59.726-59.726h-1237.072c-32.986 0-59.726 26.74-59.726 59.726v27.175c0 32.986 26.74 59.726 59.726 59.726z" />
<glyph unicode="&#xe926;" d="M1024 512c0-282.77-229.23-512-512-512s-512 229.23-512 512c0 282.77 229.23 512 512 512s512-229.23 512-512z" />
<glyph unicode="&#xe927;" d="M886.863 563.030c-8.698 64.125-32.557 121.429-67.836 169.883l0.739-1.065c-23.212 32.337-50.314 59.979-81.057 83.030l-0.977 0.701c-39.69 30.303-86.994 52.874-138.45 64.488l-2.421 0.459c-18.783 4.073-38.131 5.997-57.253 8.939-1.584 0-3.055 0.679-4.639 1.131h-45.939l-28.061-3.734c-51.428-6.958-97.824-23.487-139.096-47.788l1.733 0.944c-45.766-26.408-84.099-60.482-114.492-100.871l-0.694-0.963c-30.192-39.539-52.714-86.643-64.37-137.878l-0.464-2.427c-4.073-18.896-5.997-38.131-8.939-57.253 0-1.81-0.792-3.508-1.131-5.205v-45.939c1.131-8.712 2.489-17.425 3.508-26.251 6.867-54.565 24.791-103.817 51.483-147.087l-0.905 1.577c54.166-89.093 141.636-153.356 244.718-175.827l2.513-0.459c15.728-3.281 31.908-4.639 47.862-6.902l6.45-1.245h45.939l26.816 3.621c64.812 8.558 122.741 32.737 171.542 68.609l-1.026-0.72c88.215 63.568 147.475 162.575 156.847 275.737l0.091 1.365c0 2.376 0.792 4.752 1.245 7.015v46.052q-1.924 13.804-3.734 28.061zM512.226 215.889c-0.101 0-0.22 0-0.339 0-163.413 0-295.885 132.472-295.885 295.885s132.472 295.885 295.885 295.885c163.254 0 295.627-132.214 295.885-295.407v-0.025c0-0.034 0-0.074 0-0.114 0-163.362-132.238-295.837-295.509-296.224h-0.037z" />
<glyph unicode="&#xe928;" glyph-name="point" d="M232.726 512c0-64.265-52.097-116.363-116.363-116.363s-116.363 52.097-116.363 116.363c0 64.265 52.097 116.363 116.363 116.363s116.363-52.097 116.363-116.363zM628.363 512c0-64.265-52.097-116.363-116.363-116.363s-116.363 52.097-116.363 116.363c0 64.265 52.097 116.363 116.363 116.363s116.363-52.097 116.363-116.363zM1024 512c0-64.265-52.097-116.363-116.363-116.363s-116.363 52.097-116.363 116.363c0 64.265 52.097 116.363 116.363 116.363s116.363-52.097 116.363-116.363z" />
</font>
</defs>
</svg>
